<svg width="196" height="59" viewBox="0 0 196 59" fill="none" xmlns="http://www.w3.org/2000/svg">
  <!-- Keep the circular logo path -->
  <path d="M29.3926 0C13.1599 0 0 13.2078 0 29.5002C0 45.7932 13.1599 59 29.3926 59C45.6271 59 58.7856 45.7932 58.7856 29.5002C58.7856 13.2089 45.6271 0.00140909 29.3923 0.00140909L29.3926 0ZM42.8719 42.5477C42.3454 43.4143 41.2152 43.6891 40.3518 43.1572C33.4507 38.9263 24.7631 37.9682 14.5319 40.3143C13.5459 40.5398 12.5632 39.9198 12.3386 38.9299C12.1129 37.94 12.7282 36.9536 13.7165 36.7281C24.913 34.1608 34.517 35.2662 42.2647 40.0184C43.1281 40.5503 43.4019 41.6811 42.8719 42.5477ZM46.4695 34.5152C45.8061 35.5973 44.3952 35.939 43.3176 35.2733C35.4169 30.3992 23.3736 28.9876 14.0286 31.8347C12.8166 32.2021 11.5366 31.5166 11.1687 30.3023C10.8037 29.0859 11.4871 27.8036 12.6969 27.4337C23.3714 24.1829 36.6419 25.7576 45.7149 31.3535C46.7924 32.0193 47.1328 33.4351 46.4695 34.5152ZM46.7783 26.1508C37.3052 20.5034 21.6758 19.9842 12.6313 22.7393C11.1789 23.1814 9.64299 22.3585 9.20285 20.9008C8.76271 19.4424 9.58191 17.9019 11.0353 17.4587C21.4179 14.2953 38.6776 14.9065 49.5841 21.4049C50.8933 22.1831 51.3215 23.8765 50.5458 25.1859C49.7737 26.497 48.0819 26.9293 46.7797 26.1508H46.7783Z" fill="#62CD5D"/>

  <!-- New bold text element -->
  <text x="70" y="40" font-family="Satoshi, Arial, sans-serif" font-size="35" font-weight="bold" fill="#62CD5D">
    Spolify
  </text>
</svg>

